<?xml version="1.0" encoding="utf-8"?><svg viewBox="0 0 112 30" xmlns="http://www.w3.org/2000/svg" xmlns:xlink="http://www.w3.org/1999/xlink"><style>:root>svg{display:none}:root>svg:target{display:block}</style><svg fill="none" viewBox="0 0 15 10" id="arrow" xmlns="http://www.w3.org/2000/svg"><path fill-rule="evenodd" clip-rule="evenodd" d="M9.745.23l5.024 4.214a.783.783 0 010 1.112L9.745 9.77a.792.792 0 01-1.117 0 .783.783 0 010-1.111l3.677-2.873H.785a.786.786 0 110-1.572h11.52L8.628 1.341a.783.783 0 010-1.11.792.792 0 011.117 0z" fill="currentColor"/></svg><svg fill="none" viewBox="0 0 14 14" id="calendar" xmlns="http://www.w3.org/2000/svg"><path d="M11.666 1.75h-.583V.583H9.916V1.75H4.083V.583H2.916V1.75h-.583a1.17 1.17 0 00-1.167 1.167v9.333a1.17 1.17 0 001.167 1.167h9.334a1.17 1.17 0 001.166-1.167V2.917a1.17 1.17 0 00-1.167-1.167zm0 10.5H2.333V4.667h9.333v7.583z" fill="currentColor"/></svg><svg fill="none" viewBox="0 0 12 12" id="clock" xmlns="http://www.w3.org/2000/svg"><path d="M6 .167C2.792.167.167 2.792.167 6c0 3.209 2.625 5.834 5.833 5.834S11.833 9.209 11.833 6C11.833 2.792 9.208.167 6 .167zM8.45 8.45L5.417 6.584v-3.5h.875v3.033l2.624 1.575-.466.758z" fill="currentColor"/></svg><svg fill="none" viewBox="0 0 31 30" id="fb" xmlns="http://www.w3.org/2000/svg"><path d="M15.91.06C7.678.06.94 6.808.94 15.12c0 7.515 5.48 13.752 12.635 14.88V19.479H9.773v-4.36h3.802V11.8c0-3.773 2.23-5.848 5.659-5.848 1.632 0 3.338.286 3.338.286v3.712h-1.886c-1.856 0-2.44 1.158-2.44 2.345v2.826h4.162l-.674 4.359h-3.488v10.52a14.955 14.955 0 009.057-5.094 15.066 15.066 0 003.578-9.785C30.88 6.808 24.144.06 15.91.06z" fill="currentColor"/></svg><svg fill="none" viewBox="0 0 30 30" id="instagram" xmlns="http://www.w3.org/2000/svg"><g clip-path="url(#eclip0)" fill="currentColor"><path d="M12.105 14.97a2.865 2.865 0 105.73 0 2.865 2.865 0 00-5.73 0z"/><path d="M8.27 9.9c.137-.373.357-.71.642-.988.277-.286.615-.505.989-.643.302-.118.757-.258 1.595-.296.907-.041 1.179-.05 3.474-.05 2.296 0 2.568.009 3.474.05.838.038 1.293.178 1.596.296.373.138.711.357.988.643.286.277.506.615.644.988.117.303.257.758.295 1.597.042.906.05 1.178.05 3.473s-.008 2.567-.05 3.474c-.038.838-.178 1.293-.295 1.596a2.665 2.665 0 01-.643.988 2.661 2.661 0 01-.989.643c-.303.118-.758.258-1.596.296-.906.042-1.178.05-3.474.05-2.295 0-2.567-.008-3.473-.05-.838-.038-1.294-.178-1.596-.296a2.847 2.847 0 01-1.632-1.631c-.118-.303-.258-.758-.296-1.596-.041-.907-.05-1.178-.05-3.474 0-2.295.009-2.567.05-3.473.038-.838.178-1.294.296-1.597zm6.7 9.484a4.414 4.414 0 100-8.828 4.414 4.414 0 000 8.828zm-4.588-7.971a1.032 1.032 0 100-2.063 1.032 1.032 0 000 2.063z"/><path d="M14.97 0c8.267 0 14.97 6.704 14.97 14.97 0 8.267-6.703 14.97-14.97 14.97C6.704 29.94 0 23.237 0 14.97 0 6.704 6.704 0 14.97 0zM6.426 18.514c.042.915.187 1.54.4 2.087a4.395 4.395 0 002.514 2.514c.546.212 1.171.358 2.086.4.917.041 1.21.051 3.544.051 2.335 0 2.627-.01 3.544-.052.915-.041 1.54-.187 2.087-.4a4.21 4.21 0 001.523-.99c.437-.43.775-.95.99-1.523.213-.547.359-1.172.4-2.087.043-.917.052-1.21.052-3.544s-.01-2.627-.051-3.544c-.042-.915-.187-1.54-.4-2.087a4.212 4.212 0 00-.991-1.522 4.21 4.21 0 00-1.523-.992c-.547-.212-1.172-.357-2.087-.4-.916-.041-1.21-.051-3.544-.051s-2.627.01-3.544.052c-.915.042-1.54.187-2.086.4a4.214 4.214 0 00-1.523.991c-.437.43-.776.949-.991 1.522-.213.547-.358 1.172-.4 2.087-.042.917-.052 1.21-.052 3.544 0 2.335.01 2.627.052 3.544z"/></g><defs><clipPath id="eclip0"><path fill="#fff" transform="matrix(-1 0 0 1 29.94 0)" d="M0 0h29.94v29.94H0z"/></clipPath></defs></svg><svg fill="none" viewBox="0 0 112 18" id="logo" xmlns="http://www.w3.org/2000/svg"><path d="M25.212 14.658V2.345h3.254V6.92h4.75V2.345h3.253v12.313h-3.254v-4.75h-4.749v4.75h-3.254zM38.396 3.049c0-.422.158-.774.475-1.056.316-.293.715-.44 1.196-.44.48 0 .88.147 1.196.44.317.282.475.634.475 1.056 0 .41-.158.762-.475 1.055-.317.293-.715.44-1.196.44-.48 0-.88-.147-1.196-.44a1.388 1.388 0 01-.475-1.055zm.176 11.609V5.511h2.99v9.147h-2.99zM44.24 13.268c-.785-.867-1.178-1.987-1.178-3.36 0-1.371.393-2.491 1.178-3.359.786-.868 1.742-1.301 2.867-1.301.81 0 1.507.234 2.094.703.27.211.48.446.633.704h.176V5.51H53V18h-8.707v-2.375h5.717v-2.374h-.176c-.164.258-.375.48-.633.668-.575.434-1.273.651-2.093.651-1.126 0-2.082-.434-2.868-1.302zm2.428-4.907c-.352.375-.528.891-.528 1.548 0 .656.176 1.172.528 1.548.352.375.82.563 1.407.563.586 0 1.055-.188 1.407-.563.352-.376.528-.892.528-1.548 0-.657-.176-1.173-.528-1.548-.352-.375-.82-.563-1.407-.563-.586 0-1.055.188-1.407.563zM54.75 14.658V2.345h2.99v4.398h.177a2.72 2.72 0 01.633-.74 3.148 3.148 0 012.093-.755c1.08 0 1.917.328 2.515.985.61.645.915 1.577.915 2.796v5.629h-2.99V9.469c0-.528-.14-.938-.422-1.231-.282-.293-.669-.44-1.161-.44a1.64 1.64 0 00-1.267.563c-.328.363-.492.85-.492 1.46v4.837h-2.99zM70.674 18V5.511h2.99v1.232h.176c.164-.27.387-.516.669-.74.645-.503 1.33-.755 2.058-.755 1.125 0 2.081.445 2.867 1.336.785.88 1.178 2.047 1.178 3.5 0 1.455-.393 2.627-1.178 3.519-.786.88-1.742 1.319-2.867 1.319-.74 0-1.425-.246-2.058-.739a2.704 2.704 0 01-.669-.756h-.176V18h-2.99zm3.518-9.604c-.352.399-.528.962-.528 1.689 0 .727.176 1.29.528 1.688.352.399.82.598 1.407.598.587 0 1.056-.199 1.407-.598.352-.398.528-.961.528-1.688s-.176-1.29-.528-1.689c-.351-.399-.82-.598-1.407-.598-.586 0-1.055.2-1.407.598zM82.838 13.603c-.786-.892-1.179-2.064-1.179-3.518 0-1.454.393-2.621 1.179-3.5.786-.892 1.741-1.337 2.867-1.337.727 0 1.413.252 2.058.756.27.223.492.469.668.739h.176V5.51h2.99v9.147h-2.99v-1.231h-.176a2.704 2.704 0 01-.668.756c-.633.493-1.32.739-2.058.739-1.126 0-2.081-.44-2.867-1.32zm2.427-5.207c-.352.399-.528.962-.528 1.689 0 .727.176 1.29.528 1.688.352.399.821.598 1.407.598.587 0 1.056-.199 1.407-.598.352-.398.528-.961.528-1.688s-.176-1.29-.528-1.689c-.351-.399-.82-.598-1.407-.598-.586 0-1.055.2-1.407.598zM92.82 11.668h2.99c.048.176.147.34.3.492.316.317.774.475 1.372.475.82 0 1.231-.205 1.231-.615 0-.188-.117-.335-.352-.44-.234-.117-.586-.235-1.055-.352a25.35 25.35 0 00-.757-.176 12.752 12.752 0 01-.738-.193 5.959 5.959 0 01-.81-.3 34.82 34.82 0 00-.65-.386c-.27-.176-.47-.352-.598-.528a4.175 4.175 0 01-.335-.686 2.535 2.535 0 01-.158-.897c0-.774.346-1.437 1.038-1.988.692-.55 1.665-.826 2.92-.826 1.571 0 2.814.516 3.729 1.547.363.446.615.956.756 1.53h-2.902a1.397 1.397 0 00-.246-.439c-.27-.293-.657-.44-1.161-.44-.704 0-1.056.205-1.056.616 0 .2.118.352.352.457.235.106.592.205 1.073.3 1.208.28 2.023.527 2.445.738 1.055.516 1.583 1.307 1.583 2.375 0 .844-.375 1.553-1.126 2.128-.738.574-1.8.862-3.183.862-1.7 0-2.996-.54-3.888-1.618a3.584 3.584 0 01-.773-1.636zM102.577 11.668h2.99c.047.176.147.34.299.492.317.317.774.475 1.372.475.821 0 1.232-.205 1.232-.615 0-.188-.118-.335-.352-.44-.235-.117-.586-.235-1.055-.352-.387-.094-.64-.152-.757-.176a12.99 12.99 0 01-.739-.193 5.967 5.967 0 01-.809-.3 31.633 31.633 0 00-.651-.386c-.269-.176-.469-.352-.598-.528a4.224 4.224 0 01-.334-.686 2.546 2.546 0 01-.158-.897c0-.774.346-1.437 1.038-1.988.692-.55 1.665-.826 2.92-.826 1.571 0 2.814.516 3.729 1.547.363.446.615.956.756 1.53h-2.902a1.408 1.408 0 00-.247-.439c-.269-.293-.656-.44-1.161-.44-.703 0-1.055.205-1.055.616 0 .2.117.352.352.457.234.106.592.205 1.073.3 1.208.28 2.023.527 2.445.738 1.055.516 1.583 1.307 1.583 2.375 0 .844-.375 1.553-1.126 2.128-.739.574-1.8.862-3.184.862-1.7 0-2.996-.54-3.887-1.618a3.58 3.58 0 01-.774-1.636z" fill="#fff"/><path fill-rule="evenodd" clip-rule="evenodd" d="M3.518 3.518v10.554h10.554L3.518 3.518zM0 0v17.59h17.59V0H0z" fill="#FF6E30"/></svg><svg fill="none" viewBox="0 0 16 16" id="phone" xmlns="http://www.w3.org/2000/svg"><path d="M14.675 10.817a9.536 9.536 0 01-2.942-.467.814.814 0 00-.841.2l-1.309 1.642C7.225 11.067 5.017 8.942 3.842 6.5l1.625-1.383a.85.85 0 00.2-.85A9.294 9.294 0 015.2 1.325.832.832 0 004.375.5H1.492C1.042.5.5.7.5 1.325.5 9.067 6.942 15.5 14.675 15.5c.592 0 .825-.525.825-.983v-2.875a.832.832 0 00-.825-.825z" fill="currentColor"/></svg><svg fill="none" viewBox="0 0 20 20" id="search" xmlns="http://www.w3.org/2000/svg"><path d="M19.929 18.25l-4.046-3.564a9.222 9.222 0 001.834-5.56c0-2.44-.925-4.728-2.596-6.452C13.45.949 11.223 0 8.858 0 6.493 0 4.267.952 2.595 2.674.921 4.395 0 6.686 0 9.125c0 2.437.924 4.73 2.595 6.452 1.672 1.725 3.895 2.674 6.263 2.674a8.621 8.621 0 005.395-1.886l4.046 3.562a.24.24 0 00.171.073.237.237 0 00.172-.073l1.287-1.323a.252.252 0 00.053-.272.25.25 0 00-.053-.081zm-6.394-4.306c-1.252 1.286-2.911 1.995-4.677 1.995-1.765 0-3.425-.709-4.677-1.995a6.882 6.882 0 01-1.937-4.819c0-1.819.688-3.531 1.937-4.818 1.252-1.286 2.912-1.995 4.677-1.995 1.766 0 3.428.705 4.677 1.995a6.882 6.882 0 011.937 4.818 6.877 6.877 0 01-1.937 4.819z" fill="currentColor"/></svg><svg fill="none" viewBox="0 0 31 30" id="vk" xmlns="http://www.w3.org/2000/svg"><path d="M15.85 0C7.584 0 .88 6.702.88 14.97s6.703 14.97 14.97 14.97c8.268 0 14.97-6.702 14.97-14.97S24.119 0 15.85 0zm7.594 16.59c.698.68 1.436 1.322 2.062 2.074.278.333.54.677.738 1.063.285.552.028 1.157-.466 1.19h-3.067c-.792.065-1.422-.255-1.953-.796-.425-.432-.818-.893-1.227-1.34a2.867 2.867 0 00-.552-.49c-.418-.272-.781-.19-1.02.248-.245.444-.3.937-.324 1.431-.034.724-.252.913-.977.947-1.55.072-3.022-.163-4.389-.945-1.206-.69-2.14-1.662-2.953-2.764-1.584-2.148-2.798-4.505-3.888-6.93-.245-.546-.066-.838.537-.85a85.326 85.326 0 013.003 0c.407.006.677.239.833.623.541 1.331 1.204 2.597 2.035 3.772.222.312.448.624.77.845.355.244.626.163.793-.233a2.57 2.57 0 00.177-.792c.08-.925.09-1.85-.049-2.772-.085-.577-.41-.95-.985-1.058-.293-.056-.25-.164-.107-.331.247-.29.478-.468.941-.468l3.465-.001c.546.107.669.352.743.902l.003 3.851c-.006.213.107.844.49.983.306.101.508-.144.69-.338.832-.882 1.424-1.923 1.954-3 .234-.475.436-.967.632-1.46.146-.363.372-.543.784-.536l3.336.004c.099 0 .199 0 .296.017.562.096.716.338.542.887-.273.862-.806 1.58-1.326 2.3-.557.77-1.152 1.514-1.703 2.288-.508.707-.468 1.064.162 1.678z" fill="currentColor"/></svg></svg>